{
  "title": "Dracula Untold 2014 1080p HDRip x264 AAC Pimp4003",
  "uid": 11398902,
  "size": 2904673086,
  "categoryP": "video",
  "categoryS": "hd___movies",
  "magnet": "?xt=urn:btih:4e546e0235e28526a5637cb11c4eda30082dcc16&amp;dn=Dracula+Untold+2014+1080p+HDRip+x264+AAC+Pimp4003&amp;tr=udp%3A%2F%2Ftracker.openbittorrent.com%3A80&amp;tr=udp%3A%2F%2Fopen.demonii.com%3A1337&amp;tr=udp%3A%2F%2Ftracker.coppersurfer.tk%3A6969&amp;tr=udp%3A%2F%2Fexodus.desync.com%3A6969",
  "seeders": 167,
  "leechers": 6,
  "uploader": "shawnmurthy",
  "files": -1,
  "time": 1415401821,
  "description": "Dracula Untold 2014 1080p HDRip x264 AAC Pimp4003\n\nENJOY\n\nPIMP4003\n\nVideo\nID                                       : 1\nFormat                                   : MPEG-4 Visual\nFormat profile                           : Simple@L3\nFormat settings, BVOP                    : No\nFormat settings, QPel                    : No\nFormat settings, GMC                     : No warppoints\nFormat settings, Matrix                  : Default (H.263)\nCodec ID                                 : 20\nDuration                                 : 1h 31mn\nBit rate                                 : 4 081 Kbps\nWidth                                    : 1 920 pixels\nHeight                                   : 1 080 pixels\nDisplay aspect ratio                     : 16:9\nFrame rate mode                          : Variable\nFrame rate                               : 23.976 fps\nMinimum frame rate                       : 23.976 fps\nMaximum frame rate                       : 24.000 fps\nColor space                              : YUV\nChroma subsampling                       : 4:2:0\nBit depth                                : 8 bits\nScan type                                : Progressive\nCompression mode                         : Lossy\nBits/(Pixel*Frame)                       : 0.082\nStream size                              : 2.62 GiB (97%)\nWriting library                          : ZJMedia MPEG Encoder\n\nAudio\nID                                       : 2\nFormat                                   : AAC\nFormat/Info                              : Advanced Audio Codec\nFormat profile                           : LC\nCodec ID                                 : 40\nDuration                                 : 1h 31mn\nBit rate mode                            : Variable\nBit rate                                 : 128 Kbps\nChannel(s)                               : 2 channels\nChannel positions                        : Front: L R\nSampling rate                            : 48.0 KHz\nCompression mode                         : Lossy\nStream size                              : 84.0 MiB (3%)",
  "parsed": {
    "xt": "urn:btih:4e546e0235e28526a5637cb11c4eda30082dcc16",
    "dn": "Dracula Untold 2014 1080p HDRip x264 AAC Pimp4003",
    "tr": [
      "udp://exodus.desync.com:6969",
      "udp://open.demonii.com:1337",
      "udp://tracker.coppersurfer.tk:6969",
      "udp://tracker.openbittorrent.com:80"
    ],
    "infoHash": "4e546e0235e28526a5637cb11c4eda30082dcc16",
    "infoHashBuffer": {
      "type": "Buffer",
      "data": [
        78,
        84,
        110,
        2,
        53,
        226,
        133,
        38,
        165,
        99,
        124,
        177,
        28,
        78,
        218,
        48,
        8,
        45,
        204,
        22
      ]
    },
    "name": "Dracula Untold 2014 1080p HDRip x264 AAC Pimp4003",
    "announce": [
      "udp://exodus.desync.com:6969",
      "udp://open.demonii.com:1337",
      "udp://tracker.coppersurfer.tk:6969",
      "udp://tracker.openbittorrent.com:80"
    ],
    "urlList": []
  },
  "previous": 173,
  "peers": 42,
  "last_updated": "2016-12-25T00:41:02.651Z"
}